<?xml version="1.0" encoding="UTF-8"?>
<svg width="60px" height="40px" viewBox="0 0 60 40" version="1.1" xmlns="http://www.w3.org/2000/svg" xmlns:xlink="http://www.w3.org/1999/xlink">
    <!-- Generator: Sketch 56.3 (81716) - https://sketch.com -->
    <title>paypal</title>
    <desc>Created with Sketch.</desc>
    <g id="Page-1" stroke="none" stroke-width="1" fill="none" fill-rule="evenodd">
        <g id="03.Grid" transform="translate(-1289.000000, -2541.000000)" fill-rule="nonzero">
            <g id="paypal" transform="translate(1289.000000, 2541.000000)">
                <path d="M60,35 C60,37.75 57.75,40 55,40 L5,40 C2.25,40 0,37.75 0,35 L0,5 C0,2.25 2.25,0 5,0 L55,0 C57.75,0 60,2.25 60,5 L60,35 Z" id="Shape" fill="#F5F5F5"></path>
                <path d="M55,0 L5,0 C2.25,0 0,2.25 0,5 L0,35 C0,37.75 2.25,40 5,40 L55,40 C57.75,40 60,37.75 60,35 L60,5 C60,2.25 57.75,0 55,0 Z M55,1 C57.206,1 59,2.794 59,5 L59,35 C59,37.206 57.206,39 55,39 L5,39 C2.794,39 1,37.206 1,35 L1,5 C1,2.794 2.794,1 5,1 L55,1 Z" id="Shape" fill="#D0D0D0"></path>
                <g id="PayPal" transform="translate(8.000000, 14.500000)">
                    <path d="M16.3974516,2.39480645 C17.2096774,2.39480645 17.8214193,2.60912903 18.1663226,3.01435484 C18.4803549,3.38338709 18.5843226,3.91032258 18.4757419,4.58096774 C18.2348065,6.11387095 17.3122258,6.88741935 15.7136774,6.88741935 L14.9454516,6.88741935 C14.779742,6.88741935 14.6381613,7.0080645 14.6126129,7.17235485 L14.3479032,8.85074195 C14.322,9.01503225 14.1807742,9.1356774 14.0147097,9.1356774 L12.8561613,9.1356774 C12.7316129,9.1356774 12.6365162,9.02496775 12.6560323,8.90219355 L13.6375161,2.6793871 C13.6634193,2.51545161 13.8046452,2.39480645 13.9707097,2.39480645 L16.3974516,2.39480645 Z M16.6774194,4.66754838 C16.7260322,4.36167742 16.687,4.14025807 16.5596129,3.99122581 C16.346,3.74141936 15.9326129,3.74141936 15.4943871,3.74141936 L15.3265484,3.74141936 C15.2271936,3.74141936 15.1420322,3.81380645 15.1267742,3.91209678 L14.8698709,5.5383226 L15.2360645,5.5383226 C15.8793871,5.5383226 16.5447097,5.5383226 16.6774194,4.66754838 Z M23.6514194,4.63951613 C23.7756129,4.63951613 23.8703548,4.75058065 23.8504838,4.873 L23.2224193,8.8503871 C23.1961613,9.0146774 23.0556452,9.1353226 22.8892258,9.1353226 L21.8424516,9.1353226 C21.7186129,9.1353226 21.6235162,9.0246129 21.6430323,8.90112905 L21.6948387,8.5782258 C21.6948387,8.5782258 21.1210645,9.2435484 20.0863548,9.2435484 C19.4834838,9.2435484 18.9767742,9.0696774 18.6226452,8.6523871 C18.2365807,8.1985484 18.0786774,7.5477742 18.1897419,6.86719355 C18.4033548,5.5028387 19.5001613,4.53022581 20.7843226,4.53022581 C21.3442581,4.53022581 21.9052581,4.65229033 22.1568387,5.01741935 L22.2380968,5.1352258 L22.2895484,4.81019355 C22.3048065,4.71190323 22.3903226,4.63951613 22.4893226,4.63951613 L23.6514194,4.63951613 Z M22.0315806,6.90125805 C22.0823226,6.5797742 22.0120645,6.28809675 21.835,6.07909675 C21.6582903,5.8722258 21.3900323,5.76258065 21.0600322,5.76258065 C20.3982581,5.76258065 19.8624516,6.22280645 19.7577742,6.88103225 C19.7031291,7.2039355 19.7684194,7.4938387 19.9401613,7.69751615 C20.1133226,7.9026129 20.383,8.0108387 20.7204516,8.0108387 C21.3925161,8.0108387 21.9194516,7.5651613 22.0315806,6.90125805 Z M29.8405161,4.63951613 C30.0040968,4.63951613 30.0995484,4.82296774 30.0065807,4.95709678 L26.1225162,10.5635484 C26.0597097,10.6543871 25.9560968,10.7083226 25.8453871,10.7083226 L24.6790322,10.7083226 C24.514742,10.7083226 24.4189355,10.5234516 24.5140322,10.3889678 L25.7233226,8.6818387 L24.4370323,4.90706452 C24.3926774,4.7757742 24.4895484,4.63951613 24.629,4.63951613 L25.7765484,4.63951613 C25.9255807,4.63951613 26.0572258,4.73745162 26.1001613,4.88009678 L26.782871,7.1599355 L28.3934839,4.78748387 C28.4566451,4.69487097 28.5613226,4.63951613 28.672742,4.63951613 L29.8405161,4.63951613 Z" id="Combined-Shape" fill="#253B80"></path>
                    <path d="M33.7068387,2.39480645 C34.5190645,2.39480645 35.1304516,2.60912903 35.475,3.01435484 C35.7890323,3.3833871 35.8937097,3.91032258 35.7847742,4.58096774 C35.5434839,6.11387095 34.6212581,6.88741935 33.0223549,6.88741935 L32.2544838,6.88741935 C32.0887742,6.88741935 31.9471936,7.0080645 31.9216452,7.17235485 L31.6430968,8.93625805 C31.625,9.0512258 31.526,9.1356774 31.4103226,9.1356774 L30.1648387,9.1356774 C30.041,9.1356774 29.9459033,9.02496775 29.9654194,8.90219355 L30.9469033,2.6793871 C30.9728065,2.51545161 31.1140323,2.39480645 31.279742,2.39480645 L33.7068387,2.39480645 Z M33.9868065,4.66754838 C34.0354194,4.36167742 33.996742,4.14025807 33.8693549,3.99122581 C33.655742,3.74141936 33.242,3.74141936 32.8041291,3.74141936 L32.6362903,3.74141936 C32.5365807,3.74141936 32.4521291,3.81380645 32.436871,3.91209678 L32.1796129,5.5383226 L32.5454516,5.5383226 C33.1891291,5.5383226 33.8544516,5.5383226 33.9868065,4.66754838 Z M40.9604516,4.63951613 C41.085,4.63951613 41.1800968,4.75058065 41.1609355,4.873 L40.5325162,8.8503871 C40.5066129,9.0146774 40.3653871,9.1353226 40.1996774,9.1353226 L39.1532581,9.1353226 C39.0287097,9.1353226 38.9336129,9.0246129 38.9531291,8.90112905 L39.0049355,8.5782258 C39.0049355,8.5782258 38.4311613,9.2435484 37.3964516,9.2435484 C36.7935807,9.2435484 36.2875807,9.0696774 35.932742,8.6523871 C35.5466774,8.1985484 35.3894839,7.5477742 35.5001936,6.86719355 C35.7138065,5.5028387 36.8102581,4.53022581 38.0944194,4.53022581 C38.6543549,4.53022581 39.215,4.65229033 39.4665806,5.01741935 L39.5481936,5.1352258 L39.5996452,4.81019355 C39.6145484,4.71190323 39.6993549,4.63951613 39.7990645,4.63951613 L40.9604516,4.63951613 Z M39.3406129,6.90125805 C39.3920645,6.5797742 39.3218065,6.28809675 39.1440323,6.07909675 C38.9673226,5.8722258 38.6990645,5.76258065 38.3690645,5.76258065 C37.7072903,5.76258065 37.1721936,6.22280645 37.0668065,6.88103225 C37.012871,7.2039355 37.0774516,7.4938387 37.2491936,7.69751615 C37.4223549,7.9026129 37.692742,8.0108387 38.0294839,8.0108387 C38.7015484,8.0108387 39.2291936,7.5651613 39.3406129,6.90125805 Z M42.3304839,2.56548387 C42.345742,2.46719355 42.4309033,2.39480645 42.5299033,2.39445161 L43.6511936,2.39445161 C43.7750323,2.39445161 43.8701291,2.50551613 43.8506129,2.62829033 L42.8684194,8.85074195 C42.842871,9.01503225 42.7016452,9.1356774 42.5352258,9.1356774 L41.533871,9.1356774 C41.4100323,9.1356774 41.3149355,9.02496775 41.3344516,8.90219355 L42.3304839,2.56548387 Z" id="Combined-Shape" fill="#179BD7"></path>
                    <path d="M2.57825806,10.3449678 L2.76383871,9.16619355 L2.35045161,9.1566129 L0.376483871,9.1566129 L1.74829032,0.458451613 C1.75254839,0.432193549 1.7663871,0.407709677 1.7866129,0.390322581 C1.80683871,0.372935484 1.83274194,0.363354838 1.85970967,0.363354838 L5.18809675,0.363354838 C6.2930645,0.363354838 7.0556129,0.593290325 7.45374195,1.04712903 C7.6403871,1.26003226 7.75925805,1.48251613 7.81674195,1.72735484 C7.8770645,1.98425806 7.87812905,2.29119355 7.8192258,2.66554839 L7.81496775,2.69287097 L7.81496775,2.93274194 L8.0016129,3.03848387 C8.15880645,3.12187097 8.2837097,3.21732258 8.37951615,3.32661291 C8.53919355,3.50864516 8.6424516,3.74 8.68609675,4.01429033 C8.7311613,4.2963871 8.71625805,4.63206451 8.6424516,5.01209675 C8.5572903,5.44925805 8.4196129,5.83 8.2336774,6.1415484 C8.06264515,6.4286129 7.8447742,6.6667097 7.58609675,6.8512258 C7.33912905,7.02651615 7.0456774,7.15958065 6.71390325,7.24474195 C6.39241935,7.32848385 6.02587095,7.3707097 5.6238387,7.3707097 L5.36480645,7.3707097 C5.17958065,7.3707097 4.99967742,7.43741935 4.85845162,7.557 C4.71687097,7.6790645 4.62319355,7.8458387 4.59445161,8.0282258 L4.57493549,8.1343226 L4.24706451,10.2119033 L4.23216129,10.2881936 C4.22825807,10.3123226 4.22151613,10.3243871 4.21158064,10.3325484 C4.20270968,10.34 4.18993549,10.3449678 4.17751613,10.3449678 L2.57825806,10.3449678 Z" id="Shape" fill="#253B80"></path>
                    <path d="M8.1783226,2.72054838 C8.1683871,2.78406451 8.15703225,2.849 8.14425805,2.91570968 C7.7053226,5.1692903 6.20364515,5.94780645 4.28574193,5.94780645 L3.30922581,5.94780645 C3.07467742,5.94780645 2.87703226,6.11812905 2.84048387,6.34948385 L2.34051613,9.5203226 L2.19893548,10.4191291 C2.17516129,10.571 2.29225806,10.7079677 2.44554838,10.7079677 L4.17751613,10.7079677 C4.38261291,10.7079677 4.55683871,10.5589355 4.58912903,10.3566774 L4.60616129,10.2686774 L4.93225807,8.19925805 L4.95319355,8.0857097 C4.98512903,7.88274195 5.1597097,7.7337097 5.36480645,7.7337097 L5.6238387,7.7337097 C7.30187095,7.7337097 8.61548385,7.05241935 8.99941935,5.0809355 C9.15980645,4.25735484 9.0767742,3.56967742 8.6523871,3.08603226 C8.5239355,2.94019355 8.3646129,2.81919355 8.1783226,2.72054838 Z" id="Shape" fill="#179BD7"></path>
                    <path d="M7.7191613,2.53745162 C7.65209675,2.51793549 7.58290325,2.50019355 7.5119355,2.4842258 C7.4406129,2.46861291 7.36751615,2.4547742 7.2922903,2.44270968 C7.029,2.40012903 6.74051615,2.37990323 6.4314516,2.37990323 L3.82267742,2.37990323 C3.75845161,2.37990323 3.69741936,2.39445161 3.64277419,2.42070967 C3.52248387,2.47854838 3.43306451,2.59245161 3.41141936,2.73190322 L2.85645162,6.2469355 L2.84048387,6.34948385 C2.87703226,6.11812905 3.07467742,5.94780645 3.30922581,5.94780645 L4.28574193,5.94780645 C6.20364515,5.94780645 7.7053226,5.1689355 8.14425805,2.91570968 C8.1573871,2.849 8.1683871,2.78406451 8.1783226,2.72054838 C8.06725805,2.66164516 7.94696775,2.61125806 7.8174516,2.56832258 C7.78551615,2.55767742 7.75251615,2.54738709 7.7191613,2.53745162 Z" id="Shape" fill="#222D65"></path>
                    <path d="M3.41141936,2.73190322 C3.43306451,2.59245161 3.52248387,2.47854838 3.64277419,2.42106451 C3.6977742,2.39480645 3.75845161,2.38025807 3.82267742,2.38025807 L6.4314516,2.38025807 C6.74051615,2.38025807 7.029,2.40048387 7.2922903,2.44306452 C7.36751615,2.45512903 7.4406129,2.46896774 7.5119355,2.48458064 C7.58290325,2.50054839 7.65209675,2.51829033 7.7191613,2.53780645 C7.75251615,2.54774193 7.78551615,2.55803226 7.81780645,2.56832258 C7.9473226,2.61125806 8.0676129,2.662 8.1786774,2.72054838 C8.30925805,1.88774193 8.1776129,1.32070968 7.7273226,0.807258065 C7.23090325,0.242 6.3349355,0 5.1884516,0 L1.86006451,0 C1.62587097,0 1.42609677,0.17032258 1.38990323,0.402032258 L0.0035483871,9.1896129 C-0.0237741935,9.36348385 0.110354838,9.5203226 0.285645162,9.5203226 L2.34051613,9.5203226 L2.85645162,6.2469355 L3.41141936,2.73190322 Z" id="Shape" fill="#253B80"></path>
                </g>
            </g>
        </g>
    </g>
</svg>