<?xml version="1.0" encoding="UTF-8"?>
<svg width="502px" height="430px" viewBox="0 0 502 430" version="1.1" xmlns="http://www.w3.org/2000/svg" xmlns:xlink="http://www.w3.org/1999/xlink">
    <!-- Generator: Sketch 60.1 (88133) - https://sketch.com -->
    <title></title>
    <desc>Created with Sketch.</desc>
    <g id="Page-1" stroke="none" stroke-width="1" fill="none" fill-rule="evenodd" opacity="0.370033482">
        <g id="05a.-Atendimento" transform="translate(-848.000000, -1332.000000)" fill-rule="nonzero" stroke="#009EF0">
            <g id="Duvidas" transform="translate(409.000000, 1263.000000)">
                <path d="M489.38617,497.953075 C500.267867,496.559999 511.149563,494.609692 521.194206,491.823539 C569.464295,479.564466 612.991081,456.718013 649.54242,424.39864 C662.656259,425.791717 676.328134,426.627562 690.000009,426.627562 C828.113849,426.627562 940.000009,346.943591 940.000009,248.313781 C940.000009,149.683971 828.113849,70 690.000009,70 C551.88617,70 440.000009,149.962586 440.000009,248.313781 C440.000009,304.872684 476.830367,355.30205 534.308045,387.900038 C521.194206,434.42879 501.10492,451.145707 483.526795,470.927393 C479.341527,475.942468 474.598224,480.121697 475.993313,487.087079 L475.993313,487.365694 C477.388402,494.052461 483.247777,498.510306 489.38617,497.953075 Z" id=""></path>
            </g>
        </g>
    </g>
</svg>