<?xml version="1.0" encoding="UTF-8"?>
<svg width="88px" height="28px" viewBox="0 0 88 28" version="1.1" xmlns="http://www.w3.org/2000/svg" xmlns:xlink="http://www.w3.org/1999/xlink">
    <!-- Generator: Sketch 52.2 (67145) - http://www.bohemiancoding.com/sketch -->
    <title>Shape</title>
    <desc>Created with Sketch.</desc>
    <g id="Page-1" stroke="none" stroke-width="1" fill="none" fill-rule="evenodd">
        <g id="logo-nerau" fill="#FFFFFF">
            <path d="M29.495,8.514 C28.479,7.346 26.881,5.016 27.772,4.95 C29.074,4.853 29.978,9.07 29.495,8.514 M19.604,15.244 C21.276,10.194 23.977,7.604 24.17,9.159 C24.469,11.564 19.197,16.474 19.604,15.245 M57.098,15.828 C50.255,22.128 52.146,15.893 52.146,15.893 C52.146,15.893 53.499,10.683 55.106,7.77 C55.412,7.216 52.656,7.073 52.341,8.158 C48.868,20.138 42.257,21.494 45.749,15.653 C50.423,7.837 48.081,9.048 47.919,8.563 C47.785,8.156 46.402,6.721 46.248,7.883 C45.637,12.48 41.47,18.677 41.085,18.677 C40.365,18.677 41.698,15.005 42.277,12.739 C42.856,10.473 41.36,11.379 41.36,11.379 C40.01,12.609 38.61,17.717 36.15,18.955 C35.862,19.101 35.91,17.79 37.164,14.779 C39.309,9.629 41.746,9.243 41.504,10.359 C40.972,12.828 44.974,4.268 41.264,6.669 C36.537,9.729 34.704,16.964 34.704,16.964 C32.839,20.331 31.824,20.424 31.18,19.454 C30.366,18.224 33.045,14.598 33.045,14.598 C34.974,11.074 30.495,9.461 30.495,9.461 C31.44,6.69 29.46,2.489 27,1.906 C22.968,0.951 27.9,8.706 29.187,9.936 C28.415,12.72 25.907,16.216 25.907,16.216 C22.047,22.886 18.511,18.936 19.667,17.446 C23.784,15.439 29.444,9.936 24.492,6.504 C21.215,4.234 17.417,15.957 17.417,15.957 C16.4925605,16.2256112 15.5570358,16.4544878 14.613,16.643 C16.749,9.93 21.233,3.051 21.233,3.051 C21.611,2.101 20.025,1.594 20.025,1.594 C20.025,1.594 19.253,1.34 18.358,1.862 C17.462,2.385 16.424,3.441 15.888,4.032 C13.141,7.062 10.768,11.018 10.978,10.397 C12.936,4.617 14.363,0.507 12.803,0.107 L9.467,0.007 C8.611,-0.073 7.845,0.577 7.845,0.577 C7.845,0.577 5.52,2.595 4.685,3.186 C4.175,3.546 1.471,4.658 1.471,2.914 C1.47,1.177 3.614,0.199 3.91,0.357 C4.205,0.515 3.837,2.08 3.837,2.08 C3.837,2.08 4.491,1.414 4.464,0.73 C4.437,0.043 3.486,0.3 3.486,0.3 L2.853,0.6 C2.853,0.6 0.073,2.4 1.287,4.31 C2.35,5.984 4.756,3.715 4.756,3.715 C4.756,3.715 8.164,0.805 9.435,0.407 C10.171,0.177 10.182,1.643 10.182,1.643 C10.182,1.643 10.681,4.52 8.058,10.33 C4.738,17.68 3.804,16.606 4.408,17.464 C5.27,18.414 7.814,16.896 8.508,16.06 C10.22,13.998 13.831,7.742 15.69,5.385 C16.566,4.275 18.279,3.045 18.212,3.314 C18.1,3.766 16.487,5.853 15.757,7.39 C14.857,9.282 14.031,10.497 11.669,16.297 C11.543,16.605 11.436,16.902 11.337,17.194 C6.791,17.841 3.307,18.051 1.017,21.202 C-2.84,26.512 5.52,28 5.52,28 C5.52,28 -2.422,21.723 10.886,18.888 C10.476,21.058 10.852,22.718 11.558,24.068 C13.778,27.468 19.281,27.658 21.588,26.192 C24.338,24.444 24.868,22.792 24.868,22.792 C24.868,22.792 22.935,24.419 20.866,24.832 C15.719,25.859 13.566,21.358 14.163,18.244 C14.521,18.169 14.841,18.101 15.126,18.039 C16.222,17.801 16.816,17.659 17.226,17.639 C16.325,21.329 19.669,23.985 23.399,20.748 C26.716,17.868 29.981,10.538 29.981,10.538 C31.975,11.834 31.931,11.855 31.117,13.582 C30.889,14.065 29.38,17.112 29.123,18.092 C28.695,19.732 29.766,21.331 31.246,21.395 C32.725,21.46 33.13,20.555 34.526,17.835 C34.191,19.343 34.582,21.497 36.152,20.751 C37.889,19.925 38.574,17.8 39.092,16.647 C39.382,16.002 40.75,13.564 40.485,14.187 C39.605,16.257 39.092,17.995 39.092,19.087 C39.285,20.77 39.845,20.411 40.356,20.317 C41.216,20.157 42.792,18.323 43.821,16.574 C43.24,18.498 43.449,18.692 43.529,19.324 C43.646,20.234 46.764,20.508 49.561,16.672 C49.304,18.776 50.571,19.777 51.665,19.809 C53.208,19.855 54.44,19.863 56.453,18.509 C58.679,17.009 64.461,9.669 74.109,9.183 C83.229,8.723 87.932,12.335 88.001,12.388 C73.721,-3.25 61.449,11.822 57.099,15.827" id="Shape"></path>
        </g>
    </g>
</svg>