<svg width="88" height="28" xmlns="http://www.w3.org/2000/svg"><path d="M29.495 8.514c-1.016-1.168-2.614-3.498-1.723-3.564 1.302-.097 2.206 4.12 1.723 3.564m-9.891 6.73c1.672-5.05 4.373-7.64 4.566-6.085.299 2.405-4.973 7.315-4.566 6.086m37.494.583c-6.843 6.3-4.952.065-4.952.065s1.353-5.21 2.96-8.123c.306-.554-2.45-.697-2.765.388-3.473 11.98-10.084 13.336-6.592 7.495 4.674-7.816 2.332-6.605 2.17-7.09-.134-.407-1.517-1.842-1.671-.68-.611 4.597-4.778 10.794-5.163 10.794-.72 0 .613-3.672 1.192-5.938.579-2.266-.917-1.36-.917-1.36-1.35 1.23-2.75 6.338-5.21 7.576-.288.146-.24-1.165 1.014-4.176 2.145-5.15 4.582-5.536 4.34-4.42-.532 2.469 3.47-6.091-.24-3.69-4.727 3.06-6.56 10.295-6.56 10.295-1.865 3.367-2.88 3.46-3.524 2.49-.814-1.23 1.865-4.856 1.865-4.856 1.929-3.524-2.55-5.137-2.55-5.137C31.44 6.69 29.46 2.489 27 1.906c-4.032-.955.9 6.8 2.187 8.03-.772 2.784-3.28 6.28-3.28 6.28-3.86 6.67-7.396 2.72-6.24 1.23 4.117-2.007 9.777-7.51 4.825-10.942-3.277-2.27-7.075 9.453-7.075 9.453a33.7 33.7 0 0 1-2.804.686c2.136-6.713 6.62-13.592 6.62-13.592.378-.95-1.208-1.457-1.208-1.457s-.772-.254-1.667.268c-.896.523-1.934 1.579-2.47 2.17-2.747 3.03-5.12 6.986-4.91 6.365 1.958-5.78 3.385-9.89 1.825-10.29l-3.336-.1c-.856-.08-1.622.57-1.622.57S5.52 2.595 4.685 3.186c-.51.36-3.214 1.472-3.214-.272C1.47 1.177 3.614.199 3.91.357c.295.158-.073 1.723-.073 1.723s.654-.666.627-1.35C4.437.043 3.486.3 3.486.3l-.633.3S.073 2.4 1.287 4.31c1.063 1.674 3.469-.595 3.469-.595S8.164.805 9.435.407c.736-.23.747 1.236.747 1.236s.499 2.877-2.124 8.687c-3.32 7.35-4.254 6.276-3.65 7.134.862.95 3.406-.568 4.1-1.404 1.712-2.062 5.323-8.318 7.182-10.675.876-1.11 2.589-2.34 2.522-2.071-.112.452-1.725 2.539-2.455 4.076-.9 1.892-1.726 3.107-4.088 8.907-.126.308-.233.605-.332.897-4.546.647-8.03.857-10.32 4.008C-2.84 26.512 5.52 28 5.52 28s-7.942-6.277 5.366-9.112c-.41 2.17-.034 3.83.672 5.18 2.22 3.4 7.723 3.59 10.03 2.124 2.75-1.748 3.28-3.4 3.28-3.4s-1.933 1.627-4.002 2.04c-5.147 1.027-7.3-3.474-6.703-6.588.358-.075.678-.143.963-.205 1.096-.238 1.69-.38 2.1-.4-.901 3.69 2.443 6.346 6.173 3.109 3.317-2.88 6.582-10.21 6.582-10.21 1.994 1.296 1.95 1.317 1.136 3.044-.228.483-1.737 3.53-1.994 4.51-.428 1.64.643 3.239 2.123 3.303 1.479.065 1.884-.84 3.28-3.56-.335 1.508.056 3.662 1.626 2.916 1.737-.826 2.422-2.951 2.94-4.104.29-.645 1.658-3.083 1.393-2.46-.88 2.07-1.393 3.808-1.393 4.9.193 1.683.753 1.324 1.264 1.23.86-.16 2.436-1.994 3.465-3.743-.581 1.924-.372 2.118-.292 2.75.117.91 3.235 1.184 6.032-2.652-.257 2.104 1.01 3.105 2.104 3.137 1.543.046 2.775.054 4.788-1.3 2.226-1.5 8.008-8.84 17.656-9.326 9.12-.46 13.823 3.152 13.892 3.205-14.28-15.638-26.552-.566-30.902 3.439" fill="#414244" fill-rule="evenodd"/></svg>