<?xml version="1.0" encoding="UTF-8"?>
<svg width="310px" height="100px" viewBox="0 0 310 100" version="1.1" xmlns="http://www.w3.org/2000/svg" xmlns:xlink="http://www.w3.org/1999/xlink">
    <!-- Generator: Sketch 60.1 (88133) - https://sketch.com -->
    <title>rgb</title>
    <desc>Created with Sketch.</desc>
    <g id="Symbols" stroke="none" stroke-width="1" fill="none" fill-rule="evenodd">
        <g id="Element-/-Logo-footer" fill-rule="nonzero">
            <g id="rgb">
                <rect id="Rectangle" fill="#FF6714" x="0" y="0" width="26" height="26"></rect>
                <rect id="Rectangle" fill="#FFB586" x="0" y="30" width="26" height="26"></rect>
                <rect id="Rectangle" fill="#FFB902" x="30" y="0" width="26" height="26"></rect>
                <polygon id="Rectangle" fill="#FF6714" transform="translate(297.000000, 87.000000) rotate(-90.000000) translate(-297.000000, -87.000000) " points="284 74 310 74 310 100 284 100"></polygon>
                <polygon id="Rectangle" fill="#FFB586" transform="translate(267.000000, 87.000000) rotate(-90.000000) translate(-267.000000, -87.000000) " points="254 74 280 74 280 100 254 100"></polygon>
                <polygon id="Rectangle" fill="#FFB902" transform="translate(297.000000, 57.000000) rotate(-90.000000) translate(-297.000000, -57.000000) " points="284 44 310 44 310 70 284 70"></polygon>
                <path d="M44.7103392,46.1017669 L52.9715254,46.1017669 C52.9715254,45.8793087 53,45.6568504 53,45.4309163 L53,42.2539345 C53,36.5908429 48.29899,32 42.5,32 C36.7010106,32 32,36.5908429 32,42.2539345 L32,45.4309163 C31.999763,46.1229209 32.0689064,46.8132858 32.2064413,47.4921309 C32.9878916,51.3469839 35.9302722,54.4410293 39.8091529,55.486724 C40.6865896,55.7174338 41.5913159,55.834302 42.5,55.834315 C42.875719,55.833956 43.2511564,55.8142317 43.624746,55.7752245 C44.5479751,56.2735806 45.0082186,57.319403 44.7431049,58.3164988 C44.4779913,59.3135945 43.554876,60.0086388 42.5,60.005407 L32.3559328,60.005407 L32.3559328,68 L42.5,68 C48.1096073,67.9856995 52.7169581,63.6678902 52.9625247,58.1949759 C53.2080913,52.7220617 49.0051318,48.0272497 43.4183054,47.5338418 C43.115763,47.5095105 42.8096613,47.4921309 42.5,47.4921309 L41.4962715,47.4921309 C40.6953101,47.1025995 40.1882931,46.3047323 40.1864411,45.4309163 L40.1864411,42.2539345 C40.1864411,41.0061347 41.2222568,39.994593 42.5,39.994593 C43.7777438,39.994593 44.8135596,41.0061347 44.8135596,42.2539345 L44.8135596,45.4309163 C44.8139761,45.6583358 44.7791759,45.8845094 44.7103392,46.1017669 L44.7103392,46.1017669 Z" id="Path" fill="#FFFFFF"></path>
                <polygon id="Path" fill="#FFFFFF" points="73 41.6633663 73 33 63.3076923 33 62.9615385 33 55 33 55 68 63.3076923 68 73 68 73 59.6831683 63.3076923 59.6831683 63.3076923 55.8712871 71.6153846 55.8712871 71.6153846 47.5544554 63.3076923 47.5544554 63.3076923 41.6633663"></polygon>
                <polygon id="Path" fill="#FFFFFF" points="119 41.6633663 119 33 109.307692 33 108.961538 33 101 33 101 68 109.307692 68 119 68 119 59.6831683 109.307692 59.6831683 109.307692 55.8712871 117.615385 55.8712871 117.615385 47.5544554 109.307692 47.5544554 109.307692 41.6633663"></polygon>
                <polygon id="Path" fill="#FFFFFF" points="134.393443 41.4970297 130.875082 33 123.366721 33 122 33 122 68 130.606557 68 130.606557 50.4930693 134.393443 59.6415842 134.393443 68 143 68 143 33 134.393443 33"></polygon>
                <path d="M156.809661,33 L146,33 L146,68 L156.809661,68 C159.512307,68 162.10426,66.9547245 164.015319,65.0941223 C165.926378,63.23352 167,60.7100018 167,58.0787129 L167,42.9212871 C167,40.2899982 165.926378,37.76648 164.015319,35.9058777 C162.10426,34.0452755 159.512307,33 156.809661,33 Z M158.457627,57.6039604 C158.457627,58.7522752 157.501489,59.6831683 156.322034,59.6831683 L154.542373,59.6831683 L154.542373,41.3168317 L156.322034,41.3168317 C157.501489,41.3168317 158.457627,42.2477248 158.457627,43.3960396 L158.457627,57.6039604 Z" id="Shape" fill="#FF8033"></path>
                <rect id="Rectangle" fill="#FF8033" x="169" y="33" width="8" height="35"></rect>
                <path d="M200.978708,46.0952293 L201,42.4480946 C201.011863,36.7140856 196.363866,32.0465182 190.595712,32 L190.595712,32 C184.827381,31.9882072 180.131874,36.6085479 180.0851,42.3423805 L180,58.5518682 C179.988137,64.2858772 184.636134,68.9534446 190.404288,69 L190.404288,69 C191.211948,69.0026568 192.01723,68.9127938 192.804181,68.7321313 L192.804181,69 L200.957439,69 L200.957439,49.2666508 L190.322755,49.2666508 L190.322755,57.3713947 L192.449692,57.3713947 L192.449692,60.8951964 L189.968266,60.8951964 C188.793591,60.8951964 187.841329,59.9486005 187.841329,58.7809153 L187.841329,42.2190475 C187.841329,41.0513623 188.793591,40.1047665 189.968266,40.1047665 L190.322755,40.1047665 C191.49743,40.1047665 192.449692,41.0513623 192.449692,42.2190475 L192.449692,46.0952293 L200.978708,46.0952293 Z" id="Path" fill="#FF8033"></path>
                <rect id="Rectangle" fill="#FF8033" x="204" y="33" width="8" height="35"></rect>
                <polygon id="Path" fill="#FF8033" points="235 33 228.7 33 220.65 33 214 33 214 41.3168317 220.65 41.3168317 220.65 68 228.7 68 228.7 41.3168317 235 41.3168317"></polygon>
                <path d="M245.344828,32 L244.655172,32 C239.322768,32 235,36.381524 235,41.7864078 L235,68 L242.931034,68 L242.931034,59.6116505 L247.068966,59.6116505 L247.068966,68 L255,68 L255,41.7864078 C255,36.381524 250.677232,32 245.344828,32 Z M247.068966,51.5728155 L242.931034,51.5728155 L242.931034,42.1359223 C242.931034,40.977733 243.857342,40.038835 245,40.038835 C246.142658,40.038835 247.068966,40.977733 247.068966,42.1359223 L247.068966,51.5728155 Z" id="Shape" fill="#FF8033"></path>
                <polygon id="Path" fill="#FF8033" points="266.653846 59.6831683 266.653846 33 258 33 258 59.6831683 258 68 266.653846 68 276 68 276 59.6831683"></polygon>
                <polygon id="Path" fill="#FFFFFF" points="91.1581039 33 87.5354811 54.4851485 83.3274198 33 75 33 82.7526256 68 92.2509225 68 100 33"></polygon>
            </g>
        </g>
    </g>
</svg>